<svg width="205" height="262" viewBox="0 0 205 262" fill="none" xmlns="http://www.w3.org/2000/svg">
<ellipse cx="58.7459" cy="106.418" rx="9.74168" ry="11.1333" transform="rotate(26.624 58.7459 106.418)" fill="#363232"/>
<ellipse cx="61.8594" cy="104.865" rx="3.47917" ry="4.175" transform="rotate(26.624 61.8594 104.865)" fill="white"/>
<circle cx="53.1424" cy="108.279" r="1.39167" transform="rotate(26.624 53.1424 108.279)" fill="white"/>
<ellipse cx="120.951" cy="137.6" rx="9.74168" ry="11.1333" transform="rotate(26.624 120.951 137.6)" fill="#363232"/>
<ellipse cx="124.064" cy="136.047" rx="3.47917" ry="4.175" transform="rotate(26.624 124.064 136.047)" fill="white"/>
<circle cx="115.347" cy="139.461" r="1.39167" transform="rotate(26.624 115.347 139.461)" fill="white"/>
<ellipse cx="41.0006" cy="113.868" rx="6.95834" ry="4.87084" transform="rotate(26.624 41.0006 113.868)" fill="#F1CCD9"/>
<ellipse cx="124.356" cy="155.653" rx="6.95834" ry="4.87084" transform="rotate(26.624 124.356 155.653)" fill="#F1CCD9"/>
<path d="M134.79 34.2865C122.07 29.9134 106.672 31.7712 91.1893 37.4107L74.3798 70.9433L140.317 103.997L160.019 64.6946C154.717 49.7548 146.37 38.2681 134.79 34.2865Z" fill="#393939"/>
<path d="M91.1893 37.4107C52.5247 51.4939 16.8537 79.9688 15.2639 112.642C13.6741 145.314 95.7306 189.84 135.882 182.724C165.58 177.46 175.084 107.141 160.019 64.6946M91.1893 37.4107C106.672 31.7712 122.07 29.9134 134.79 34.2865C146.37 38.2681 154.717 49.7548 160.019 64.6946M91.1893 37.4107L74.3798 70.9433L140.317 103.997L160.019 64.6946M80.8296 116.709C78.5019 122.243 78.9539 125.109 81.4421 126.357C83.9303 127.604 86.5931 126.414 89.5367 122.631C88.1614 127.036 88.2846 129.787 91.3949 131.346C94.5052 132.905 97.5056 130.551 100.113 126.376" stroke="#393939" stroke-width="3"/>
<path d="M203.5 90.9998C195.885 90.9998 174.999 87.9999 172 90.9998C169 93.9997 168.426 114 168.426 114M27.4995 216.5C69.5 208.5 154.499 226.5 152.5 216.5C150.5 206.5 155.198 199.13 156.928 188M168.426 114C97.1282 111.397 13.4992 99.9998 10.9995 114C8.49986 128 17.9993 179.5 27.4995 188C36.9998 196.5 104.849 195.918 156.928 188M168.426 114L156.928 188M50.9995 137.5L56.9995 166.5M76.9995 137.5L79.9995 152L82.9995 166.5M99.4995 137.5L105.5 166.5" stroke="#393939" stroke-width="6"/>
<path d="M58.0458 237.703C59.1921 242.238 58.8373 246.636 57.4071 250.065C55.9771 253.493 53.5229 255.865 50.4758 256.635C47.4288 257.405 44.1425 256.484 41.2554 254.147C38.368 251.81 35.9661 248.108 34.8199 243.573C33.6736 239.037 34.0284 234.639 35.4586 231.211C36.8886 227.782 39.3428 225.411 42.3899 224.641C45.4369 223.871 48.7232 224.791 51.6103 227.128C54.4977 229.466 56.8996 233.167 58.0458 237.703Z" stroke="#393939" stroke-width="3"/>
<path d="M137.091 237.703C138.237 242.238 137.882 246.636 136.452 250.065C135.022 253.493 132.568 255.865 129.521 256.635C126.474 257.405 123.187 256.484 120.3 254.147C117.413 251.81 115.011 248.108 113.865 243.573C112.719 239.037 113.073 234.639 114.504 231.211C115.933 227.782 118.388 225.411 121.435 224.641C124.482 223.871 127.768 224.791 130.655 227.128C133.543 229.466 135.945 233.167 137.091 237.703Z" stroke="#393939" stroke-width="3"/>
</svg>
