<svg width="140" height="101" viewBox="0 0 140 101" fill="none" xmlns="http://www.w3.org/2000/svg">
<path d="M14.3439 11.7258C0.428425 25.4009 -2.94763 33.5999 5.8437 46.7261C10.2371 52.4737 17.6181 52.9038 30.8433 49.392C29.4732 32.1867 25.5412 24.0955 14.3439 11.7258Z" fill="#FBBA97"/>
<path d="M17.8433 9.22607C31.8663 22.9644 32.7465 33.0263 34.3433 48.4119C38.2895 46.0488 46.3453 43.5977 55.8433 41.9588C52.5857 21.7336 49.6932 11.9208 39.3433 1.80805C32.0625 2.94128 24.8084 5.31432 17.8433 9.22607Z" fill="#FBBA97"/>
<path d="M43.8433 1.26299C51.3829 13.1748 56.4314 18.0013 58.8433 41.4759C64.9388 40.5644 71.4882 40.0056 77.8433 40.0181C78.5332 25.1414 76.3508 17.0513 67.8433 3.145C60.1238 1.31879 52.0008 0.551306 43.8433 1.26299Z" fill="#FBBA97"/>
<path d="M96.6404 15.7261C89.9621 11.2437 82.1074 7.3728 73.614 4.72607C80.4809 15.8048 82.2208 23.6856 82.3433 40.1273C90.3931 40.5115 97.86 41.9381 103.343 44.8798C103.01 31.9547 101.816 25.3846 96.6404 15.7261Z" fill="#FBBA97"/>
<path d="M116.273 59.3461C116.429 59.4431 116.618 59.568 116.844 59.7262C121.487 63.3276 124.716 63.9483 130.844 64.2261C130.466 57.9471 128.851 54.7938 123.843 49.7261C130.209 49.9768 133.383 48.7215 138.343 43.7263C134.225 38.4365 129.668 37.0128 116.844 37.7258C114.477 31.8722 109.347 25.6017 102.343 19.9287C106.197 31.2566 106.86 37.0701 106.343 46.7992C107.487 47.675 108.494 48.6483 109.344 49.7261C114.256 55.9612 115.896 58.4704 116.273 59.3461Z" fill="#FBBA97"/>
<path d="M5.8437 46.7261C1.44825 54.0118 1.64577 57.8717 8.3437 64.2261C3.52663 72.3589 4.57577 75.8098 12.3437 80.2261C13.4386 89.9346 17.4505 91.0225 26.3437 90.7261C29.6723 97.2101 33.5875 97.2923 41.8437 95.2261C48.6733 101.706 52.8775 101.391 60.8437 95.2261C68.4654 101.698 72.7211 101.401 80.3437 95.2261C87.2364 96.4141 90.5606 95.2051 95.8437 90.7261C105.168 90.3159 107.912 87.8426 109.344 80.2261C114.551 76.2625 116.98 73.7309 113.344 64.2261L116.844 59.7262M5.8437 46.7261C-2.94763 33.5999 0.428425 25.4009 14.3439 11.7258M5.8437 46.7261C10.2371 52.4737 17.6181 52.9038 30.8433 49.392M116.844 59.7262C121.487 63.3276 124.716 63.9483 130.844 64.2261C130.466 57.9471 128.851 54.7938 123.843 49.7261C130.209 49.9768 133.383 48.7215 138.343 43.7263C134.225 38.4365 129.668 37.0128 116.844 37.7258C114.477 31.8722 109.347 25.6017 102.343 19.9287M116.844 59.7262C116.618 59.568 116.429 59.4431 116.273 59.3461M109.344 49.7261C108.494 48.6483 107.487 47.675 106.343 46.7992M109.344 49.7261C114.256 55.9612 115.896 58.4704 116.273 59.3461M109.344 49.7261C121.679 65.3826 113.378 57.5464 116.273 59.3461M14.3439 11.7258C15.6656 10.8545 16.4993 9.98085 17.8433 9.22607M14.3439 11.7258L17.8433 9.22607M14.3439 11.7258C25.5412 24.0955 29.4732 32.1867 30.8433 49.392M30.8433 49.392C31.9671 49.0935 33.1332 48.7664 34.3433 48.4119M17.8433 9.22607C31.8663 22.9644 32.7465 33.0263 34.3433 48.4119M17.8433 9.22607C24.8084 5.31432 32.0625 2.94128 39.3433 1.80805M34.3433 48.4119C38.2895 46.0488 46.3453 43.5977 55.8433 41.9588M39.3433 1.80805C49.6932 11.9208 52.5857 21.7336 55.8433 41.9588M39.3433 1.80805C40.8429 1.57464 42.3437 1.39382 43.8433 1.26299M55.8433 41.9588C56.8287 41.7887 57.8297 41.6274 58.8433 41.4759M43.8433 1.26299C51.3829 13.1748 56.4314 18.0013 58.8433 41.4759M43.8433 1.26299C52.0008 0.551306 60.1238 1.31879 67.8433 3.145M58.8433 41.4759C64.9388 40.5644 71.4882 40.0056 77.8433 40.0181M67.8433 3.145C69.7946 3.60664 71.7202 4.13593 73.614 4.72607M67.8433 3.145C76.3508 17.0513 78.5332 25.1414 77.8433 40.0181M73.614 4.72607C82.1074 7.3728 89.9621 11.2437 96.6404 15.7261M73.614 4.72607C80.4809 15.8048 82.2208 23.6856 82.3433 40.1273M96.6404 15.7261C98.6531 17.077 100.559 18.4835 102.343 19.9287M96.6404 15.7261C101.816 25.3846 103.01 31.9547 103.343 44.8798M102.343 19.9287C106.197 31.2566 106.86 37.0701 106.343 46.7992M77.8433 40.0181C79.3572 40.0211 80.8601 40.0565 82.3433 40.1273M103.343 44.8798C97.86 41.9381 90.3931 40.5115 82.3433 40.1273M103.343 44.8798C104.424 45.4596 105.427 46.0981 106.343 46.7992M56.8433 68.2261C58.3433 72.7261 64.3433 73.2261 65.8433 67.7261" stroke="black" stroke-width="2"/>
<ellipse cx="36.3433" cy="66.2261" rx="7" ry="8" fill="#363232"/>
<ellipse cx="37.8433" cy="64.2261" rx="2.5" ry="3" fill="white"/>
<circle cx="33.3433" cy="69.2261" r="1" fill="white"/>
<ellipse cx="86.3433" cy="66.2261" rx="7" ry="8" fill="#363232"/>
<ellipse cx="87.8433" cy="64.2261" rx="2.5" ry="3" fill="white"/>
<circle cx="83.3433" cy="69.2261" r="1" fill="white"/>
<ellipse cx="27.3433" cy="76.7261" rx="5" ry="3.5" fill="#F1CCD9"/>
<ellipse cx="94.3433" cy="76.7261" rx="5" ry="3.5" fill="#F1CCD9"/>
</svg>
