<svg width="205" height="207" viewBox="0 0 205 207" fill="none" xmlns="http://www.w3.org/2000/svg">
<path d="M37.3439 12.4998C23.4284 26.1748 20.0524 34.3738 28.8437 47.5001C33.2371 53.2476 40.6181 53.6778 53.8433 50.1659C52.4732 32.9606 48.5412 24.8694 37.3439 12.4998Z" fill="#FBBA97"/>
<path d="M40.8433 10C54.8663 23.7383 55.7465 33.8002 57.3433 49.1858C61.2895 46.8227 69.3453 44.3716 78.8433 42.7327C75.5857 22.5075 72.6932 12.6947 62.3433 2.58198C55.0625 3.71521 47.8084 6.08825 40.8433 10Z" fill="#FBBA97"/>
<path d="M66.8433 2.03692C74.3829 13.9487 79.4314 18.7752 81.8433 42.2498C87.9388 41.3383 94.4882 40.7795 100.843 40.792C101.533 25.9154 99.3508 17.8253 90.8433 3.91893C83.1238 2.09271 75.0008 1.32523 66.8433 2.03692Z" fill="#FBBA97"/>
<path d="M119.64 16.5C112.962 12.0176 105.107 8.14672 96.614 5.5C103.481 16.5787 105.221 24.4595 105.343 40.9012C113.393 41.2855 120.86 42.712 126.343 45.6537C126.01 32.7286 124.816 26.1585 119.64 16.5Z" fill="#FBBA97"/>
<path d="M139.273 60.12C139.429 60.217 139.618 60.342 139.844 60.5001C144.487 64.1015 147.716 64.7222 153.844 65.0001C153.466 58.721 151.851 55.5678 146.843 50.5001C153.209 50.7507 156.383 49.4954 161.343 44.5002C157.225 39.2104 152.668 37.7867 139.844 38.4998C137.477 32.6461 132.347 26.3756 125.343 20.7027C129.197 32.0305 129.86 37.844 129.343 47.5731C130.487 48.4489 131.494 49.4222 132.344 50.5001C137.256 56.7351 138.896 59.2443 139.273 60.12Z" fill="#FBBA97"/>
<path d="M28.8437 47.5001C24.4483 54.7857 24.6458 58.6456 31.3437 65.0001C26.5266 73.1328 27.5758 76.5837 35.3437 81.0001C36.4386 90.7085 40.4505 91.7965 49.3437 91.5001C52.6723 97.984 56.5875 98.0663 64.8437 96.0001C71.6733 102.48 75.8775 102.165 83.8437 96.0001C91.4654 102.472 95.7211 102.174 103.344 96.0001C110.236 97.188 113.561 95.9791 118.844 91.5001C128.168 91.0899 130.912 88.6166 132.344 81.0001C137.551 77.0365 139.98 74.5048 136.344 65.0001L139.844 60.5001M28.8437 47.5001C20.0524 34.3738 23.4284 26.1748 37.3439 12.4998M28.8437 47.5001C33.2371 53.2476 40.6181 53.6778 53.8433 50.1659M139.844 60.5001C144.487 64.1015 147.716 64.7222 153.844 65.0001C153.466 58.721 151.851 55.5678 146.843 50.5001C153.209 50.7507 156.383 49.4954 161.343 44.5002C157.225 39.2104 152.668 37.7867 139.844 38.4998C137.477 32.6461 132.347 26.3756 125.343 20.7027M139.844 60.5001C139.618 60.342 139.429 60.217 139.273 60.12M132.344 50.5001C131.494 49.4222 130.487 48.4489 129.343 47.5731M132.344 50.5001C137.256 56.7351 138.896 59.2443 139.273 60.12M132.344 50.5001C144.679 66.1565 136.378 58.3203 139.273 60.12M37.3439 12.4998C38.6656 11.6284 39.4993 10.7548 40.8433 10M37.3439 12.4998L40.8433 10M37.3439 12.4998C48.5412 24.8694 52.4732 32.9606 53.8433 50.1659M53.8433 50.1659C54.9671 49.8675 56.1332 49.5403 57.3433 49.1858M40.8433 10C54.8663 23.7383 55.7465 33.8002 57.3433 49.1858M40.8433 10C47.8084 6.08825 55.0625 3.71521 62.3433 2.58198M57.3433 49.1858C61.2895 46.8227 69.3453 44.3716 78.8433 42.7327M62.3433 2.58198C72.6932 12.6947 75.5857 22.5075 78.8433 42.7327M62.3433 2.58198C63.8429 2.34856 65.3437 2.16775 66.8433 2.03692M78.8433 42.7327C79.8287 42.5626 80.8297 42.4013 81.8433 42.2498M66.8433 2.03692C74.3829 13.9487 79.4314 18.7752 81.8433 42.2498M66.8433 2.03692C75.0008 1.32523 83.1238 2.09271 90.8433 3.91893M81.8433 42.2498C87.9388 41.3383 94.4882 40.7795 100.843 40.792M90.8433 3.91893C92.7946 4.38056 94.7202 4.90985 96.614 5.5M90.8433 3.91893C99.3508 17.8253 101.533 25.9154 100.843 40.792M96.614 5.5C105.107 8.14672 112.962 12.0176 119.64 16.5M96.614 5.5C103.481 16.5787 105.221 24.4595 105.343 40.9012M119.64 16.5C121.653 17.8509 123.559 19.2574 125.343 20.7027M119.64 16.5C124.816 26.1585 126.01 32.7286 126.343 45.6537M125.343 20.7027C129.197 32.0305 129.86 37.844 129.343 47.5731M100.843 40.792C102.357 40.795 103.86 40.8304 105.343 40.9012M126.343 45.6537C120.86 42.712 113.393 41.2855 105.343 40.9012M126.343 45.6537C127.424 46.2335 128.427 46.8721 129.343 47.5731M79.8433 69C81.3433 73.5 87.3433 74 88.8433 68.5" stroke="black" stroke-width="2"/>
<ellipse cx="59.3433" cy="67" rx="7" ry="8" fill="#363232"/>
<ellipse cx="60.8433" cy="65" rx="2.5" ry="3" fill="white"/>
<circle cx="56.3433" cy="70" r="1" fill="white"/>
<ellipse cx="109.343" cy="67" rx="7" ry="8" fill="#363232"/>
<ellipse cx="110.843" cy="65" rx="2.5" ry="3" fill="white"/>
<circle cx="106.343" cy="70" r="1" fill="white"/>
<ellipse cx="50.3433" cy="77.5" rx="5" ry="3.5" fill="#F1CCD9"/>
<ellipse cx="117.343" cy="77.5" rx="5" ry="3.5" fill="#F1CCD9"/>
<path d="M14.2812 145.469C11.6562 145.469 9.34375 145.208 7.34375 144.688C5.36458 144.146 3.84375 143.49 2.78125 142.719C1.73958 141.948 1.21875 141.219 1.21875 140.531C1.21875 139.99 1.41667 139.323 1.8125 138.531C2.22917 137.74 2.71875 137.062 3.28125 136.5C3.84375 135.917 4.3125 135.625 4.6875 135.625C4.91667 135.625 5.40625 135.823 6.15625 136.219C7.28125 136.802 8.34375 137.271 9.34375 137.625C10.3646 137.979 11.5312 138.156 12.8438 138.156C14.3021 138.156 15.5312 137.875 16.5312 137.312C17.5521 136.729 18.0625 135.719 18.0625 134.281C18.0625 133.448 17.8021 132.729 17.2812 132.125C16.7604 131.521 16.0938 131.01 15.2812 130.594C14.4688 130.177 13.3646 129.688 11.9688 129.125L9.5 128.062C8 127.333 6.70833 126.531 5.625 125.656C4.5625 124.781 3.6875 123.625 3 122.188C2.33333 120.75 2 118.99 2 116.906C2 114.365 2.625 112.25 3.875 110.562C5.125 108.875 6.75 107.635 8.75 106.844C10.75 106.052 12.8958 105.656 15.1875 105.656C17.0625 105.656 18.7604 105.854 20.2812 106.25C21.8021 106.625 22.9896 107.115 23.8438 107.719C24.7188 108.323 25.1562 108.927 25.1562 109.531C25.1562 110.031 24.9896 110.677 24.6562 111.469C24.3438 112.24 23.9479 112.917 23.4688 113.5C22.9896 114.083 22.5417 114.375 22.125 114.375C21.9375 114.375 21.6042 114.271 21.125 114.062C20.3542 113.75 19.5729 113.5 18.7812 113.312C18.0104 113.104 17.0625 113 15.9375 113C14 113 12.6562 113.312 11.9062 113.938C11.1562 114.542 10.7812 115.26 10.7812 116.094C10.7812 117.052 11.0312 117.854 11.5312 118.5C12.0521 119.146 12.6979 119.677 13.4688 120.094C14.2604 120.51 15.3542 120.99 16.75 121.531C18.8542 122.427 20.5729 123.281 21.9062 124.094C23.2396 124.885 24.3854 126.031 25.3438 127.531C26.3229 129.031 26.8125 130.948 26.8125 133.281C26.8125 136.135 26.2083 138.479 25 140.312C23.8125 142.125 22.2708 143.438 20.375 144.25C18.5 145.062 16.4688 145.469 14.2812 145.469ZM47.5938 145.469C44.2188 145.469 41.3229 144.938 38.9062 143.875C36.5104 142.812 34.6771 141.281 33.4062 139.281C32.1354 137.26 31.5 134.833 31.5 132V107.781C31.5 107.177 31.7708 106.729 32.3125 106.438C32.8542 106.125 33.6979 105.969 34.8438 105.969H36.7188C37.8646 105.969 38.6979 106.125 39.2188 106.438C39.7604 106.729 40.0312 107.177 40.0312 107.781V131.438C40.0312 132.729 40.3438 133.885 40.9688 134.906C41.6146 135.927 42.5104 136.729 43.6562 137.312C44.8021 137.875 46.1146 138.156 47.5938 138.156C49.0729 138.156 50.3854 137.875 51.5312 137.312C52.6979 136.729 53.6042 135.927 54.25 134.906C54.8958 133.885 55.2188 132.729 55.2188 131.438V107.781C55.2188 107.177 55.4792 106.729 56 106.438C56.5417 106.125 57.3854 105.969 58.5312 105.969H60.375C61.5208 105.969 62.3542 106.125 62.875 106.438C63.4167 106.729 63.6875 107.177 63.6875 107.781V132C63.6875 134.833 63.0521 137.26 61.7812 139.281C60.5104 141.281 58.6667 142.812 56.25 143.875C53.8542 144.938 50.9688 145.469 47.5938 145.469ZM81.6562 145.469C79.0312 145.469 76.7188 145.208 74.7188 144.688C72.7396 144.146 71.2188 143.49 70.1562 142.719C69.1146 141.948 68.5938 141.219 68.5938 140.531C68.5938 139.99 68.7917 139.323 69.1875 138.531C69.6042 137.74 70.0938 137.062 70.6562 136.5C71.2188 135.917 71.6875 135.625 72.0625 135.625C72.2917 135.625 72.7812 135.823 73.5312 136.219C74.6562 136.802 75.7188 137.271 76.7188 137.625C77.7396 137.979 78.9062 138.156 80.2188 138.156C81.6771 138.156 82.9062 137.875 83.9062 137.312C84.9271 136.729 85.4375 135.719 85.4375 134.281C85.4375 133.448 85.1771 132.729 84.6562 132.125C84.1354 131.521 83.4688 131.01 82.6562 130.594C81.8438 130.177 80.7396 129.688 79.3438 129.125L76.875 128.062C75.375 127.333 74.0833 126.531 73 125.656C71.9375 124.781 71.0625 123.625 70.375 122.188C69.7083 120.75 69.375 118.99 69.375 116.906C69.375 114.365 70 112.25 71.25 110.562C72.5 108.875 74.125 107.635 76.125 106.844C78.125 106.052 80.2708 105.656 82.5625 105.656C84.4375 105.656 86.1354 105.854 87.6562 106.25C89.1771 106.625 90.3646 107.115 91.2188 107.719C92.0938 108.323 92.5312 108.927 92.5312 109.531C92.5312 110.031 92.3646 110.677 92.0312 111.469C91.7188 112.24 91.3229 112.917 90.8438 113.5C90.3646 114.083 89.9167 114.375 89.5 114.375C89.3125 114.375 88.9792 114.271 88.5 114.062C87.7292 113.75 86.9479 113.5 86.1562 113.312C85.3854 113.104 84.4375 113 83.3125 113C81.375 113 80.0312 113.312 79.2812 113.938C78.5312 114.542 78.1562 115.26 78.1562 116.094C78.1562 117.052 78.4062 117.854 78.9062 118.5C79.4271 119.146 80.0729 119.677 80.8438 120.094C81.6354 120.51 82.7292 120.99 84.125 121.531C86.2292 122.427 87.9479 123.281 89.2812 124.094C90.6146 124.885 91.7604 126.031 92.7188 127.531C93.6979 129.031 94.1875 130.948 94.1875 133.281C94.1875 136.135 93.5833 138.479 92.375 140.312C91.1875 142.125 89.6458 143.438 87.75 144.25C85.875 145.062 83.8438 145.469 81.6562 145.469ZM103.188 145.094C100.979 145.094 99.875 144.51 99.875 143.344V107.781C99.875 107.177 100.135 106.729 100.656 106.438C101.198 106.125 102.042 105.969 103.188 105.969H105.156C106.302 105.969 107.135 106.125 107.656 106.438C108.198 106.729 108.469 107.177 108.469 107.781V121.5H123.469V107.781C123.469 107.177 123.74 106.729 124.281 106.438C124.823 106.125 125.667 105.969 126.812 105.969H128.75C130.979 105.969 132.094 106.573 132.094 107.781V143.344C132.094 144.51 130.979 145.094 128.75 145.094H126.812C124.583 145.094 123.469 144.51 123.469 143.344V128.844H108.469V143.344C108.469 144.51 107.365 145.094 105.156 145.094H103.188ZM142.781 145.156C141.656 145.156 140.812 145 140.25 144.688C139.708 144.375 139.438 143.927 139.438 143.344V107.781C139.438 106.552 140.552 105.938 142.781 105.938H144.719C145.865 105.938 146.698 106.094 147.219 106.406C147.76 106.719 148.031 107.177 148.031 107.781V143.344C148.031 144.552 146.927 145.156 144.719 145.156H142.781ZM7.1875 194.094C4.95833 194.094 3.84375 193.51 3.84375 192.344V157.312C3.84375 156.542 4.02083 155.99 4.375 155.656C4.72917 155.302 5.29167 155.125 6.0625 155.125H16.9062C26.1146 155.125 30.7188 158.594 30.7188 165.531C30.7188 167.635 30.125 169.448 28.9375 170.969C27.7708 172.49 26.1979 173.625 24.2188 174.375V174.594C24.9062 174.885 25.625 175.51 26.375 176.469C27.1458 177.427 27.7604 178.51 28.2188 179.719L33.125 191.938C33.2917 192.438 33.375 192.792 33.375 193C33.375 193.729 32.2708 194.094 30.0625 194.094H27.7812C25.9271 194.094 24.8542 193.708 24.5625 192.938L20.1562 182.094C19.7396 181.26 19.3333 180.615 18.9375 180.156C18.5625 179.698 18.0312 179.354 17.3438 179.125C16.6562 178.875 15.7292 178.75 14.5625 178.75H12.4062V192.344C12.4062 193.51 11.2917 194.094 9.0625 194.094H7.1875ZM17.6562 171.375C18.4062 171.375 19.1146 171.167 19.7812 170.75C20.4479 170.312 20.9792 169.729 21.375 169C21.7708 168.271 21.9688 167.469 21.9688 166.594C21.9688 165.302 21.5417 164.281 20.6875 163.531C19.8542 162.76 18.7188 162.375 17.2812 162.375H12.4062V171.375H17.6562ZM54.25 194.469C50.4583 194.469 47.2292 193.698 44.5625 192.156C41.9167 190.615 39.8958 188.365 38.5 185.406C37.125 182.427 36.4375 178.802 36.4375 174.531C36.4375 170.281 37.125 166.677 38.5 163.719C39.8958 160.74 41.9167 158.49 44.5625 156.969C47.2292 155.427 50.4583 154.656 54.25 154.656C58.0625 154.656 61.2917 155.427 63.9375 156.969C66.6042 158.49 68.625 160.74 70 163.719C71.375 166.677 72.0625 170.281 72.0625 174.531C72.0625 178.802 71.375 182.427 70 185.406C68.625 188.365 66.6042 190.615 63.9375 192.156C61.2917 193.698 58.0625 194.469 54.25 194.469ZM54.25 187.156C57.2292 187.156 59.4792 186.083 61 183.938C62.5208 181.771 63.2812 178.635 63.2812 174.531C63.2812 170.427 62.5208 167.312 61 165.188C59.4792 163.062 57.2292 162 54.25 162C51.2917 162 49.0417 163.073 47.5 165.219C45.9792 167.344 45.2188 170.448 45.2188 174.531C45.2188 178.635 45.9896 181.771 47.5312 183.938C49.0729 186.083 51.3125 187.156 54.25 187.156ZM80.625 194C79.8542 194 79.2917 193.823 78.9375 193.469C78.5833 193.115 78.4062 192.552 78.4062 191.781V156.781C78.4062 156.177 78.6771 155.729 79.2188 155.438C79.7604 155.125 80.6042 154.969 81.75 154.969H83.625C84.7708 154.969 85.6146 155.125 86.1562 155.438C86.6979 155.729 86.9688 156.177 86.9688 156.781V186.719H99.3438C99.9271 186.719 100.344 186.938 100.594 187.375C100.865 187.812 101 188.51 101 189.469V191.219C101 192.198 100.865 192.906 100.594 193.344C100.344 193.781 99.9271 194 99.3438 194H80.625ZM107.5 194C106.729 194 106.167 193.823 105.812 193.469C105.458 193.115 105.281 192.552 105.281 191.781V156.781C105.281 156.177 105.552 155.729 106.094 155.438C106.635 155.125 107.479 154.969 108.625 154.969H110.5C111.646 154.969 112.49 155.125 113.031 155.438C113.573 155.729 113.844 156.177 113.844 156.781V186.719H126.219C126.802 186.719 127.219 186.938 127.469 187.375C127.74 187.812 127.875 188.51 127.875 189.469V191.219C127.875 192.198 127.74 192.906 127.469 193.344C127.219 193.781 126.802 194 126.219 194H107.5ZM142.594 194.469C139.969 194.469 137.656 194.208 135.656 193.688C133.677 193.146 132.156 192.49 131.094 191.719C130.052 190.948 129.531 190.219 129.531 189.531C129.531 188.99 129.729 188.323 130.125 187.531C130.542 186.74 131.031 186.062 131.594 185.5C132.156 184.917 132.625 184.625 133 184.625C133.229 184.625 133.719 184.823 134.469 185.219C135.594 185.802 136.656 186.271 137.656 186.625C138.677 186.979 139.844 187.156 141.156 187.156C142.615 187.156 143.844 186.875 144.844 186.312C145.865 185.729 146.375 184.719 146.375 183.281C146.375 182.448 146.115 181.729 145.594 181.125C145.073 180.521 144.406 180.01 143.594 179.594C142.781 179.177 141.677 178.688 140.281 178.125L137.812 177.062C136.312 176.333 135.021 175.531 133.938 174.656C132.875 173.781 132 172.625 131.312 171.188C130.646 169.75 130.312 167.99 130.312 165.906C130.312 163.365 130.938 161.25 132.188 159.562C133.438 157.875 135.062 156.635 137.062 155.844C139.062 155.052 141.208 154.656 143.5 154.656C145.375 154.656 147.073 154.854 148.594 155.25C150.115 155.625 151.302 156.115 152.156 156.719C153.031 157.323 153.469 157.927 153.469 158.531C153.469 159.031 153.302 159.677 152.969 160.469C152.656 161.24 152.26 161.917 151.781 162.5C151.302 163.083 150.854 163.375 150.438 163.375C150.25 163.375 149.917 163.271 149.438 163.062C148.667 162.75 147.885 162.5 147.094 162.312C146.323 162.104 145.375 162 144.25 162C142.312 162 140.969 162.312 140.219 162.938C139.469 163.542 139.094 164.26 139.094 165.094C139.094 166.052 139.344 166.854 139.844 167.5C140.365 168.146 141.01 168.677 141.781 169.094C142.573 169.51 143.667 169.99 145.062 170.531C147.167 171.427 148.885 172.281 150.219 173.094C151.552 173.885 152.698 175.031 153.656 176.531C154.635 178.031 155.125 179.948 155.125 182.281C155.125 185.135 154.521 187.479 153.312 189.312C152.125 191.125 150.583 192.438 148.688 193.25C146.812 194.062 144.781 194.469 142.594 194.469Z" fill="black"/>
<path d="M202.562 158.719C202.896 158.719 203.188 159 203.438 159.562C203.708 160.104 203.917 160.708 204.062 161.375C204.208 162.042 204.281 162.49 204.281 162.719C204.281 164.552 202.51 165.469 198.969 165.469C196.302 165.469 194.271 164.708 192.875 163.188C191.271 164 189.729 164.583 188.25 164.938C186.771 165.292 184.969 165.469 182.844 165.469C180.365 165.469 178.177 165 176.281 164.062C174.385 163.104 172.906 161.74 171.844 159.969C170.802 158.177 170.281 156.073 170.281 153.656C170.281 151.323 170.823 149.292 171.906 147.562C172.99 145.812 174.594 144.531 176.719 143.719V143.5C175.135 142.833 173.875 141.792 172.938 140.375C172.021 138.938 171.562 137.281 171.562 135.406C171.562 133.427 172.031 131.708 172.969 130.25C173.906 128.771 175.229 127.635 176.938 126.844C178.667 126.052 180.677 125.656 182.969 125.656C184.74 125.656 186.198 125.812 187.344 126.125C188.49 126.417 189.062 127.042 189.062 128C189.062 128.854 188.969 129.625 188.781 130.312C188.594 131 188.344 131.542 188.031 131.938C187.74 132.333 187.438 132.531 187.125 132.531C187 132.51 186.656 132.448 186.094 132.344C185.552 132.219 184.99 132.156 184.406 132.156C182.948 132.156 181.823 132.562 181.031 133.375C180.26 134.188 179.875 135.302 179.875 136.719C179.875 138.115 180.385 139.229 181.406 140.062C182.427 140.896 183.833 141.312 185.625 141.312H190.844L191.562 136.062C191.729 134.875 192.729 134.281 194.562 134.281H196.281C197.24 134.281 197.938 134.427 198.375 134.719C198.833 135.01 199.062 135.458 199.062 136.062V141.312H201.781C202.365 141.312 202.781 141.542 203.031 142C203.302 142.438 203.438 143.135 203.438 144.094V145.062C203.438 146.042 203.302 146.75 203.031 147.188C202.781 147.625 202.365 147.844 201.781 147.844H199.062V156.531C199.062 157.385 199.219 158 199.531 158.375C199.844 158.75 200.354 158.938 201.062 158.938C201.25 158.938 201.521 158.906 201.875 158.844C202.229 158.76 202.458 158.719 202.562 158.719ZM178.594 153.531C178.594 155.24 179.094 156.573 180.094 157.531C181.115 158.469 182.458 158.938 184.125 158.938C185.208 158.938 186.281 158.833 187.344 158.625C188.406 158.396 189.573 158 190.844 157.438V147.844H185.094C182.844 147.844 181.198 148.323 180.156 149.281C179.115 150.24 178.594 151.656 178.594 153.531Z" fill="black"/>
</svg>
